<svg width="22" height="22" viewBox="0 0 22 22" fill="none" xmlns="http://www.w3.org/2000/svg">
<g id="icons8-instagram 1">
<path id="Vector" d="M10.6772 5.71285C7.93168 5.71285 5.71717 7.92736 5.71717 10.6728C5.71717 13.4183 7.93168 15.6328 10.6772 15.6328C13.4226 15.6328 15.6371 13.4183 15.6371 10.6728C15.6371 7.92736 13.4226 5.71285 10.6772 5.71285ZM10.6772 13.8975C8.90296 13.8975 7.45252 12.4514 7.45252 10.6728C7.45252 8.89432 8.89864 7.4482 10.6772 7.4482C12.4557 7.4482 13.9018 8.89432 13.9018 10.6728C13.9018 12.4514 12.4514 13.8975 10.6772 13.8975ZM16.9969 5.50996C16.9969 6.15316 16.4789 6.66686 15.84 6.66686C15.1968 6.66686 14.6831 6.14885 14.6831 5.50996C14.6831 4.87108 15.2012 4.35306 15.84 4.35306C16.4789 4.35306 16.9969 4.87108 16.9969 5.50996ZM20.282 6.68413C20.2086 5.1344 19.8546 3.76166 18.7193 2.63067C17.5883 1.49967 16.2156 1.14569 14.6659 1.06799C13.0687 0.977337 8.28134 0.977337 6.68413 1.06799C5.13872 1.14137 3.76598 1.49535 2.63067 2.62635C1.49535 3.75735 1.14569 5.13009 1.06799 6.67981C0.977337 8.27702 0.977337 13.0643 1.06799 14.6616C1.14137 16.2113 1.49535 17.584 2.63067 18.715C3.76598 19.846 5.1344 20.2 6.68413 20.2777C8.28134 20.3683 13.0687 20.3683 14.6659 20.2777C16.2156 20.2043 17.5883 19.8503 18.7193 18.715C19.8503 17.584 20.2043 16.2113 20.282 14.6616C20.3727 13.0643 20.3727 8.28134 20.282 6.68413ZM18.2186 16.3753C17.8819 17.2214 17.23 17.8732 16.3796 18.2143C15.1062 18.7193 12.0844 18.6028 10.6772 18.6028C9.26989 18.6028 6.24382 18.715 4.97468 18.2143C4.12859 17.8776 3.47676 17.2257 3.13573 16.3753C2.63067 15.1019 2.74722 12.0801 2.74722 10.6728C2.74722 9.26557 2.63498 6.2395 3.13573 4.97037C3.47244 4.12427 4.12427 3.47244 4.97468 3.13141C6.24813 2.62635 9.26989 2.7429 10.6772 2.7429C12.0844 2.7429 15.1105 2.63067 16.3796 3.13141C17.2257 3.46812 17.8776 4.11996 18.2186 4.97037C18.7236 6.24382 18.6071 9.26557 18.6071 10.6728C18.6071 12.0801 18.7236 15.1062 18.2186 16.3753Z" fill="black"/>
</g>
</svg>
